<?xml version="1.0" encoding="utf-8"?>
<!-- Generator: Adobe Illustrator 16.0.4, SVG Export Plug-In . SVG Version: 6.00 Build 0)  -->
<!DOCTYPE svg PUBLIC "-//W3C//DTD SVG 1.1//EN" "http://www.w3.org/Graphics/SVG/1.1/DTD/svg11.dtd">
<svg version="1.1" id="Layer_1" xmlns="http://www.w3.org/2000/svg" xmlns:xlink="http://www.w3.org/1999/xlink" x="0px" y="0px"
	 width="80px" height="80px" viewBox="0 0 80 80" enable-background="new 0 0 80 80" xml:space="preserve">
<path fill="#AEAEAF" d="M77.506,63.898C64.854,59.01,50.807,52.938,49.629,49.153v-3.968c2.623-2.686,4.693-6.431,5.92-10.815
	c1.627-1.144,2.701-3.072,2.701-5.259c0-1.554-0.564-2.96-1.463-4.066v-8.887c0-9.171-5.107-15.45-16.785-15.45
	c-11.375,0-16.791,6.279-16.791,15.45v8.89c-0.896,1.104-1.46,2.509-1.46,4.063c0,2.185,1.07,4.11,2.699,5.256
	c1.225,4.388,3.297,8.133,5.924,10.818v3.968c-1.178,3.778-15.228,9.854-27.881,14.745c-1.078,0.419-1.792,1.466-1.792,2.641v9.925
	c0,1.561,1.247,2.827,2.784,2.827h73.03c1.539,0,2.783-1.267,2.783-2.827v-9.925C79.299,65.364,78.586,64.314,77.506,63.898z"/>
</svg>
